<?xml version="1.0" encoding="iso-8859-1"?>
<!-- Generator: Adobe Illustrator 19.0.0, SVG Export Plug-In . SVG Version: 6.00 Build 0)  -->
<svg version="1.1" id="Layer_1" xmlns="http://www.w3.org/2000/svg" xmlns:xlink="http://www.w3.org/1999/xlink" x="0px" y="0px"
	 viewBox="0 0 502 502" style="enable-background:new 0 0 502 502;" xml:space="preserve">
<g>
	<g>
		<g>
			<path d="M428.483,73.516C381.076,26.108,318.045,0,251,0C187.063,0,126.787,23.76,80.22,67.077L77,63.857V29
				c0-5.523-4.478-10-10-10c-5.522,0-10,4.477-10,10v14.857l-7.929-7.929c-3.906-3.904-10.236-3.904-14.143,0
				c-3.905,3.905-3.905,10.237,0,14.143L40.857,56H28c-5.522,0-10,4.477-10,10s4.478,10,10,10h32.857l5.256,5.256
				C23.406,127.68,0,187.538,0,251c0,67.044,26.108,130.076,73.517,177.484C120.924,475.892,183.955,502,251,502
				s130.076-26.108,177.483-73.516C475.892,381.076,502,318.044,502,251S475.892,120.924,428.483,73.516z M251,482
				C123.626,482,20,378.374,20,251c0-59.843,22.877-114.442,60.34-155.517l18.401,18.401C65.976,150.233,46,198.325,46,251
				c0,113.038,91.963,205,205,205s205-91.962,205-205S364.037,46,251,46c-53.182,0-101.696,20.361-138.166,53.691L94.447,81.305
				C135.639,43.274,190.649,20,251,20c127.374,0,231,103.626,231,231S378.374,482,251,482z M347.825,159.852
				c23.313,24.755,36.152,57.125,36.152,91.148c0,73.324-59.653,132.978-132.978,132.978S118.022,324.324,118.022,251
				c0-32.816,11.955-62.888,31.73-86.105l24.739,24.739c-13.516,16.817-21.618,38.162-21.618,61.367
				c0,54.107,44.02,98.126,98.127,98.126c16.331,0,32.505-4.096,46.772-11.845c4.854-2.636,6.651-8.707,4.015-13.561
				c-2.635-4.853-8.708-6.651-13.56-4.015c-11.347,6.163-24.22,9.42-37.228,9.42c-43.079,0-78.127-35.047-78.127-78.126
				c0-17.687,5.916-34.013,15.862-47.122l24.728,24.728c-3.925,6.555-6.189,14.214-6.189,22.394
				c0,24.11,19.615,43.726,43.726,43.726c24.111,0,43.727-19.616,43.727-43.726S275.11,207.274,251,207.274
				c-8.699,0-16.805,2.564-23.623,6.96l-24.619-24.619c13.295-10.471,30.045-16.742,48.242-16.742
				c43.079,0,78.127,35.047,78.127,78.126c0,5.523,4.478,10,10,10c5.522,0,10-4.477,10-10c0-54.107-44.02-98.126-98.127-98.126
				c-23.714,0-45.49,8.457-62.472,22.512l-24.712-24.712c23.36-20.327,53.859-32.651,87.184-32.651
				c10.699,0,21.342,1.273,31.632,3.783c5.369,1.306,10.777-1.979,12.085-7.345c1.31-5.366-1.979-10.776-7.345-12.085
				c-11.84-2.889-24.077-4.353-36.372-4.353c-38.839,0-74.337,14.557-101.344,38.491l-22.671-22.671
				C159.819,84.125,203.332,66,251,66c102.01,0,185,82.991,185,185s-82.99,185-185,185S66,353.009,66,251
				c0-47.16,17.747-90.247,46.902-122.956l22.671,22.671c-23.378,26.872-37.55,61.954-37.55,100.285
				c0,84.353,68.625,152.978,152.978,152.978S403.978,335.353,403.978,251c0-39.14-14.771-76.38-41.592-104.86
				c-3.786-4.02-10.115-4.21-14.136-0.424S344.039,155.831,347.825,159.852z M251.071,237.928l-8.931-8.931
				c2.74-1.107,5.729-1.723,8.86-1.723c13.082,0,23.726,10.643,23.726,23.726c0,13.083-10.644,23.726-23.726,23.726
				c-13.082,0-23.726-10.643-23.726-23.726c0-2.582,0.42-5.067,1.187-7.396l8.468,8.467C238.882,254.023,241.44,255,244,255
				s5.118-0.977,7.071-2.929C254.976,248.166,254.976,241.834,251.071,237.928z"/>
			<path d="M337.67,124.926c-5.791-3.989-11.912-7.608-18.19-10.756c-4.938-2.476-10.947-0.48-13.422,4.458
				c-2.476,4.937-0.479,10.946,4.457,13.421c5.457,2.736,10.776,5.881,15.812,9.349c1.731,1.193,3.707,1.765,5.663,1.765
				c3.179,0,6.305-1.513,8.244-4.329C343.366,134.286,342.219,128.059,337.67,124.926z"/>
			<path d="M335.877,276.824c-5.067-2.193-10.956,0.133-13.15,5.202c-2.721,6.281-6.271,12.194-10.552,17.574
				c-3.438,4.322-2.723,10.613,1.599,14.052c1.841,1.464,4.038,2.175,6.22,2.175c2.942,0,5.857-1.293,7.832-3.774
				c5.375-6.755,9.834-14.183,13.253-22.078C343.273,284.907,340.944,279.02,335.877,276.824z"/>
		</g>
	</g>
</g>
<g>
</g>
<g>
</g>
<g>
</g>
<g>
</g>
<g>
</g>
<g>
</g>
<g>
</g>
<g>
</g>
<g>
</g>
<g>
</g>
<g>
</g>
<g>
</g>
<g>
</g>
<g>
</g>
<g>
</g>
</svg>
