<?xml version="1.0" encoding="iso-8859-1"?>
<!-- Generator: Adobe Illustrator 16.0.0, SVG Export Plug-In . SVG Version: 6.00 Build 0)  -->
<!DOCTYPE svg PUBLIC "-//W3C//DTD SVG 1.1//EN" "http://www.w3.org/Graphics/SVG/1.1/DTD/svg11.dtd">
<svg version="1.1" id="Capa_1" xmlns="http://www.w3.org/2000/svg" xmlns:xlink="http://www.w3.org/1999/xlink" x="0px" y="0px"
	 width="293.864px" height="293.864px" viewBox="0 0 293.864 293.864" style="enable-background:new 0 0 293.864 293.864;"
	 xml:space="preserve">
<g>
	<path d="M35.09,127.375v131.979c0,2.902,2.353,5.257,5.256,5.257h210.562c2.905,0,5.256-2.354,5.256-5.257V127.342l29.298,21.845
		c0.944,0.701,2.043,1.04,3.142,1.04c1.602,0,3.183-0.732,4.219-2.118c1.732-2.327,1.253-5.621-1.074-7.356l-36.363-27.112
		c-0.695-1.136-1.804-1.977-3.121-2.331L143.569,30.278c-0.101-0.074-0.21-0.124-0.314-0.19c-0.161-0.104-0.323-0.214-0.495-0.294
		c-0.151-0.074-0.305-0.13-0.462-0.188c-0.161-0.063-0.32-0.127-0.488-0.173c-0.164-0.045-0.332-0.074-0.505-0.098
		c-0.164-0.027-0.328-0.06-0.498-0.074c-0.164-0.01-0.325-0.007-0.489-0.003c-0.176,0.003-0.351,0.003-0.521,0.024
		c-0.159,0.019-0.313,0.057-0.467,0.087c-0.174,0.039-0.347,0.075-0.519,0.126c-0.157,0.053-0.312,0.124-0.465,0.19
		c-0.154,0.067-0.31,0.13-0.46,0.214c-0.164,0.091-0.318,0.207-0.476,0.315c-0.103,0.074-0.21,0.123-0.308,0.204L94.034,65.622
		V52.166c0-2.906-2.353-5.257-5.256-5.257H58.259c-2.906,0-5.257,2.351-5.257,5.257v46.995L1.93,140.901
		c-2.25,1.836-2.579,5.148-0.743,7.398c1.041,1.272,2.551,1.928,4.076,1.928c1.167,0,2.344-0.387,3.321-1.184L35.09,127.375z
		 M63.515,57.422h20.006v16.792L63.515,90.566V57.422z M45.604,118.782l94.974-77.624l105.075,78.346v134.59H45.604V118.782z"/>
	<path d="M190.494,187.854l-64.126-64.118c0.64-8.133-2.24-15.997-8.044-21.801c-5.248-5.253-12.232-8.143-19.659-8.143
		c-2.772,0-5.518,0.409-8.165,1.224c-1.174,0.361-2.074,1.311-2.372,2.501s0.053,2.457,0.92,3.326l12.174,12.176l-11.168,11.168
		l-12.178-12.174c-0.873-0.868-2.13-1.222-3.325-0.92c-1.196,0.298-2.146,1.198-2.501,2.375c-3.025,9.873-0.368,20.533,6.923,27.819
		c5.748,5.742,13.636,8.673,21.801,8.043l64.114,64.125c-0.633,8.138,2.248,15.995,8.046,21.792
		c5.256,5.249,12.237,8.145,19.663,8.145c2.772,0,5.517-0.41,8.158-1.218c1.178-0.363,2.078-1.308,2.375-2.502
		c0.298-1.194-0.051-2.454-0.92-3.323l-13.432-13.429l11.17-11.176l13.425,13.435c0.869,0.869,2.136,1.219,3.329,0.921
		c1.195-0.298,2.146-1.197,2.502-2.375c3.015-9.883,0.366-20.543-6.923-27.825C206.544,190.157,198.646,187.245,190.494,187.854z
		 M202.438,204.309c-0.66-0.661-1.55-1.027-2.481-1.027c-0.931,0-1.823,0.366-2.478,1.027l-16.132,16.135
		c-0.657,0.657-1.026,1.547-1.026,2.478c0,0.925,0.369,1.821,1.026,2.479l10.985,10.978c-5.455-0.068-10.578-2.224-14.445-6.084
		c-4.647-4.651-6.786-11.085-5.865-17.645c0.15-1.089-0.212-2.188-0.992-2.964l-66.486-66.494c-0.663-0.664-1.557-1.027-2.478-1.027
		c-0.162,0-0.327,0.01-0.491,0.034c-6.483,0.933-13.037-1.254-17.648-5.869c-3.906-3.901-6.03-9.101-6.093-14.448l9.741,9.741
		c1.371,1.371,3.585,1.371,4.956,0l16.124-16.124c1.371-1.365,1.371-3.585,0-4.955l-9.734-9.738
		c5.458,0.067,10.583,2.221,14.448,6.09c4.652,4.654,6.792,11.088,5.862,17.645c-0.154,1.09,0.214,2.19,0.991,2.969l66.496,66.489
		c0.777,0.78,1.883,1.137,2.964,0.992c6.481-0.917,13.035,1.26,17.648,5.862c3.901,3.901,6.022,9.1,6.088,14.452L202.438,204.309z"
		/>
</g>
<g>
</g>
<g>
</g>
<g>
</g>
<g>
</g>
<g>
</g>
<g>
</g>
<g>
</g>
<g>
</g>
<g>
</g>
<g>
</g>
<g>
</g>
<g>
</g>
<g>
</g>
<g>
</g>
<g>
</g>
</svg>
